<svg width="150" height="150" viewBox="0 0 150 150" xmlns="http://www.w3.org/2000/svg">
  <!-- Background Circle -->
  <circle cx="75" cy="75" r="70" fill="#4f46e5" opacity="0.1" />
  
  <!-- Kubernetes Wheel (Simplified) -->
  <g transform="translate(75, 75) scale(0.45)">
    <!-- Outer circle -->
    <circle cx="0" cy="0" r="125" fill="none" stroke="#4f46e5" stroke-width="12" />
    
    <!-- Inner circle -->
    <circle cx="0" cy="0" r="40" fill="none" stroke="#4f46e5" stroke-width="10" />
    
    <!-- Spokes -->
    <g stroke="#4f46e5" stroke-width="10">
      <!-- Top -->
      <line x1="0" y1="-40" x2="0" y2="-125" />
      
      <!-- Top Right -->
      <line x1="28" y1="-28" x2="88" y2="-88" />
      
      <!-- Right -->
      <line x1="40" y1="0" x2="125" y2="0" />
      
      <!-- Bottom Right -->
      <line x1="28" y1="28" x2="88" y2="88" />
      
      <!-- Bottom -->
      <line x1="0" y1="40" x2="0" y2="125" />
      
      <!-- Bottom Left -->
      <line x1="-28" y1="28" x2="-88" y2="88" />
      
      <!-- Left -->
      <line x1="-40" y1="0" x2="-125" y2="0" />
      
      <!-- Top Left -->
      <line x1="-28" y1="-28" x2="-88" y2="-88" />
    </g>
  </g>
  
  <!-- Book icon for learning -->
  <g transform="translate(75, 105) scale(0.7)">
    <path d="M-30,-15 L30,-15 L30,15 L-30,15 Z" fill="#4f46e5" opacity="0.9" rx="3" ry="3" />
    <path d="M-25,-10 L-5,-10 L-5,10 L-25,10 Z" fill="#fff" rx="2" ry="2" />
    <path d="M0,-10 L25,-10 L25,10 L0,10 Z" fill="#fff" rx="2" ry="2" />
  </g>
  
  <!-- AI/CPU icon -->
  <g transform="translate(115, 35) scale(0.5)">
    <rect x="-20" y="-20" width="40" height="40" fill="#4f46e5" rx="5" ry="5" />
    <circle cx="0" cy="0" r="10" fill="#fff" />
    <line x1="-20" y1="-10" x2="-30" y2="-10" stroke="#4f46e5" stroke-width="3" />
    <line x1="-20" y1="0" x2="-30" y2="0" stroke="#4f46e5" stroke-width="3" />
    <line x1="-20" y1="10" x2="-30" y2="10" stroke="#4f46e5" stroke-width="3" />
    <line x1="20" y1="-10" x2="30" y2="-10" stroke="#4f46e5" stroke-width="3" />
    <line x1="20" y1="0" x2="30" y2="0" stroke="#4f46e5" stroke-width="3" />
    <line x1="20" y1="10" x2="30" y2="10" stroke="#4f46e5" stroke-width="3" />
    <line x1="-10" y1="-20" x2="-10" y2="-30" stroke="#4f46e5" stroke-width="3" />
    <line x1="0" y1="-20" x2="0" y2="-30" stroke="#4f46e5" stroke-width="3" />
    <line x1="10" y1="-20" x2="10" y2="-30" stroke="#4f46e5" stroke-width="3" />
    <line x1="-10" y1="20" x2="-10" y2="30" stroke="#4f46e5" stroke-width="3" />
    <line x1="0" y1="20" x2="0" y2="30" stroke="#4f46e5" stroke-width="3" />
    <line x1="10" y1="20" x2="10" y2="30" stroke="#4f46e5" stroke-width="3" />
  </g>
</svg> 